<?xml version="1.0" encoding="utf-8"?>
<!-- Generator: Adobe Illustrator 24.3.0, SVG Export Plug-In . SVG Version: 6.00 Build 0)  -->
<svg version="1.1" id="Layer_1" xmlns="http://www.w3.org/2000/svg" xmlns:xlink="http://www.w3.org/1999/xlink" x="0px" y="0px"
	 viewBox="0 0 500 500" style="enable-background:new 0 0 500 500;" xml:space="preserve">
<style type="text/css">
	.st0{fill:#020203;}
	.st1{font-family:'Rockwell-ExtraBold';}
	.st2{font-size:53.3478px;}
	.st3{letter-spacing:24.05;}
	.st4{fill:none;stroke:#020203;stroke-width:5;stroke-miterlimit:10;}
</style>
<g id="FOTO_STUDIO_x0D__x09__x09__x09_BLIC">
	<text transform="matrix(0.998 0 0 1 59.5925 364.3507)" class="st0 st1 st2">FOTO STUDIO</text>
	<text transform="matrix(0.998 0 0 1 59.5925 428.3908)" class="st0 st1 st2 st3">   </text>
	<text transform="matrix(0.998 0 0 1 174.5798 428.3908)" class="st0 st1 st2">BLIC</text>
</g>
<g>
	<path class="st0" d="M85.68,280.92c0-52.73,0-105.5,0-158.23c5.43-15.05,16.65-20.78,32.54-18.79c0-5.33,0-9.67,0-13.95
		c-0.05-4.63,2.09-6.93,6.88-6.93c13.7,0.05,27.41,0.1,41.11,0c5.13-0.05,7.13,2.44,6.98,7.33c-0.15,4.29-0.05,8.62-0.05,12.81
		c12.51,1.69,12.41,1.64,17.94-8.07c4.49-7.87,9.22-15.65,13.8-23.47c31.79,0,63.54,0,95.34,0c5.38,9.22,10.96,18.29,16.05,27.71
		c1.89,3.49,3.99,4.63,7.87,4.58c22.43-0.2,44.85-0.1,67.33-0.1c18.44,0,27.91,9.42,27.91,27.76c0,46.6,0,93.14,0,139.74
		c0,19.73-9.02,28.76-28.66,28.76c-91.55,0-183.05-0.2-274.59,0.2C101.18,300.15,90.86,295.22,85.68,280.92z M252.33,289.49
		c46.7,0,93.34,0,140.04,0c11.76,0,16.5-4.78,16.5-16.69c0-47.19,0-94.39,0-141.58c0-12.46-4.68-17.04-17.39-17.04
		c-24.02,0-48.09-0.1-72.11,0.1c-4.78,0.05-7.72-1.54-9.92-5.83c-3.74-7.43-8.12-14.55-11.96-21.93c-1.64-3.14-3.49-4.54-7.28-4.54
		c-25.22,0.2-50.43,0.15-75.65,0c-3.49,0-5.33,1.25-6.88,4.19c-3.84,7.38-8.22,14.5-11.96,21.93c-2.24,4.49-5.23,6.23-10.32,6.18
		c-24.22-0.2-48.44-0.1-72.71-0.1c-11.76,0-16.55,4.83-16.55,16.65c0,47.19,0,94.39,0,141.58c0,12.56,4.58,17.04,17.34,17.04
		C159.78,289.49,206.03,289.49,252.33,289.49z M128.89,103.2c11.66,0,22.63,0,33.54,0c0-3.49,0-6.53,0-9.52
		c-11.46,0-22.43,0-33.54,0C128.89,97.08,128.89,99.97,128.89,103.2z"/>
	<path class="st0" d="M336.5,199.59c-0.15,46.35-37.97,83.87-84.37,83.67c-46.35-0.2-83.77-38.02-83.57-84.47
		c0.2-46.5,37.92-83.87,84.37-83.57C299.47,115.51,336.65,153.04,336.5,199.59z M252.63,272.74c40.37,0.05,73.61-33.09,73.56-73.41
		c-0.05-40.82-33.09-73.91-73.81-73.86c-40.42,0.05-73.51,33.14-73.56,73.51C178.82,239.75,211.71,272.69,252.63,272.74z"/>
	<path class="st0" d="M370.79,170.43c-4.78,0-9.52-0.1-14.3,0c-4.39,0.1-6.78-1.79-6.78-6.28c-0.05-10.12,0-20.23,0-30.3
		c0-4.44,2.29-6.43,6.68-6.43c9.92,0.05,19.83,0.05,29.75,0c4.49,0,6.58,2.29,6.58,6.58c0.05,9.92,0,19.83,0,29.7
		c0,4.68-2.39,6.83-7.08,6.68C380.7,170.33,375.77,170.43,370.79,170.43z M382,138.34c-7.53,0-14.55,0-21.73,0
		c0,7.28,0,14.15,0,21.33c7.38,0,14.4,0,21.73,0C382,152.49,382,145.66,382,138.34z"/>
	<path class="st0" d="M252.33,263.33c-35.58-0.1-64.24-28.95-64.09-64.54c0.2-35.43,29.3-64.19,64.79-63.99
		c35.08,0.2,63.94,29.35,63.79,64.39C316.67,234.87,287.91,263.43,252.33,263.33z M306.35,199.04
		c-0.1-29.75-24.07-53.72-53.77-53.72s-53.77,24.02-53.82,53.67c-0.05,30,24.22,54.27,54.07,54.12
		C282.38,252.96,306.4,228.69,306.35,199.04z"/>
	<path class="st0" d="M295.44,199.39c-0.8,0.85-2.44,4.14-4.68,4.58c-4.19,0.9-5.48-2.54-5.88-6.33c-1.89-18.19-12.76-29.05-31-30.9
		c-3.54-0.35-6.48-1.35-6.33-5.43c0.2-4.49,3.54-5.18,7.23-5.03C276.25,157.13,294.99,176.01,295.44,199.39z"/>
</g>
<path class="st4" d="M292.74,472.22"/>
<polyline class="st4" points="33.78,472.22 33.78,30.65 475.35,30.65 475.35,468.74 "/>
<path class="st4" d="M57.96,472.22"/>
<path class="st4" d="M165.78,472.22"/>
</svg>
