<?xml version="1.0" encoding="UTF-8" standalone="no"?>
<!-- Generator: Adobe Illustrator 24.3.0, SVG Export Plug-In . SVG Version: 6.00 Build 0)  -->

<svg
   version="1.1"
   id="Layer_1"
   x="0px"
   y="0px"
   viewBox="0 0 500 250"
   xml:space="preserve"
   sodipodi:docname="logo_nav.svg"
   width="500"
   height="250"
   inkscape:version="1.1.1 (26b7af14f2, 2022-01-19)"
   xmlns:inkscape="http://www.inkscape.org/namespaces/inkscape"
   xmlns:sodipodi="http://sodipodi.sourceforge.net/DTD/sodipodi-0.dtd"
   xmlns="http://www.w3.org/2000/svg"
   xmlns:svg="http://www.w3.org/2000/svg"><defs
   id="defs179" /><sodipodi:namedview
   id="namedview177"
   pagecolor="#ffffff"
   bordercolor="#666666"
   borderopacity="1.0"
   inkscape:pageshadow="2"
   inkscape:pageopacity="0.0"
   inkscape:pagecheckerboard="0"
   showgrid="false"
   height="300px"
   inkscape:zoom="1.105915"
   inkscape:cx="175.87247"
   inkscape:cy="281.66722"
   inkscape:window-width="1852"
   inkscape:window-height="1016"
   inkscape:window-x="0"
   inkscape:window-y="0"
   inkscape:window-maximized="1"
   inkscape:current-layer="Layer_1" />
<style
   type="text/css"
   id="style136">
	.st0{fill:#020203;}
	.st1{font-family:'Rockwell-ExtraBold';}
	.st2{font-size:45.3669px;}
	.st3{fill:#FFFFFF;}
	.st4{enable-background:new    ;}
</style>
<g
   id="FOTO__x0D_STUDIO_x0D_BLIC"
   transform="translate(-0.57927146,-110.95168)">
	<text
   transform="matrix(0.998,0,0,1,6.3994,206.1404)"
   class="st0 st1 st2"
   id="text138">FOTO </text>
	<text
   transform="matrix(0.998,0,0,1,6.3994,260.5994)"
   class="st0 st1 st2"
   id="text140">STUDIO</text>
	<text
   transform="matrix(0.998,0,0,1,6.3994,315.0154)"
   class="st0 st1 st2"
   id="text142">BLIC</text>
</g>
<g
   id="Layer_1_xA0_Image_1_"
   transform="translate(-0.57927146,-110.95168)">
	<g
   id="g161">
		<path
   class="st0"
   d="m 208.89,298.74 c 0,-45.09 0,-90.18 0,-135.28 4.62,-12.84 14.2,-17.76 27.76,-16.06 0,-4.53 0,-8.26 0,-11.95 -0.04,-3.94 1.78,-5.93 5.85,-5.93 11.7,0.04 23.39,0.08 35.05,0 4.41,-0.04 6.1,2.08 5.93,6.27 -0.13,3.69 -0.04,7.37 -0.04,10.93 10.68,1.44 10.6,1.4 15.3,-6.91 3.81,-6.74 7.84,-13.39 11.78,-20.09 27.12,0 54.25,0 81.37,0 4.58,7.88 9.32,15.64 13.69,23.65 1.61,2.97 3.39,3.98 6.7,3.94 18.44,-0.17 36.91,0.34 55.35,-0.21 12.8,-0.38 21.53,4.28 25.98,16.36 0,45.09 0,90.18 0,135.28 -2.8,8.05 -8.22,13.48 -16.27,16.27 -84.08,0 -168.16,0 -252.25,0 -7.98,-2.79 -13.4,-8.22 -16.2,-16.27 z m 143.24,6.23 c 39.69,0 79.37,0 119.06,0 11.88,0 15.44,-4.99 14.36,-18.52 -0.06,-36.93 -0.13,-73.63 -0.19,-110.56 1.6,-15.17 -1.75,-20.77 -14,-20.77 -20.52,-0.04 -41.04,-0.13 -61.57,0.08 -4.54,0.04 -7.21,-1.48 -9.2,-5.51 -3.18,-6.36 -6.91,-12.42 -10.22,-18.73 -1.23,-2.37 -2.67,-3.39 -5.47,-3.39 -21.71,0.13 -43.42,0.13 -65.13,0 -3.05,0 -4.54,1.14 -5.85,3.64 -3.31,6.32 -7.04,12.38 -10.22,18.73 -1.62,3.24 -4.95,5.24 -8.57,5.21 -20.43,-0.17 -40.87,-0.09 -61.3,-0.09 -13.99,0 -16.37,5.67 -14.57,24.45 0.04,33.67 0.07,67.09 0.11,100.76 -2.04,18.77 0.44,24.68 14.21,24.68 39.51,0.02 79.03,0.02 118.55,0.02 z M 244.16,148.17 c 10.09,0 19.79,0 29.67,0 0,-2.98 0,-5.62 0,-8.48 -10.05,0 -19.75,0 -29.67,0 0,2.86 0,5.41 0,8.48 z"
   id="path145" />
		<path
   class="st3"
   d="M 208.89,315.02"
   id="path147" />
		<path
   class="st3"
   d="M 225.17,315.02"
   id="path149" />
		<path
   class="st3"
   d="M 208.89,298.74"
   id="path151" />
		<path
   class="st0"
   d="m 279.62,228.86 c -0.08,-39.46 31.74,-71.58 71.16,-71.79 39.96,-0.21 72.05,31.7 72.17,71.75 0.17,39.5 -32.12,71.88 -71.66,71.88 -39.58,-0.01 -71.58,-32.05 -71.67,-71.84 z m 71.41,62.89 c 34.5,0.21 62.98,-27.97 63.1,-62.43 0.13,-34.92 -27.84,-63.27 -62.64,-63.49 -34.41,-0.21 -62.93,28.06 -63.1,62.51 -0.16,34.93 27.77,63.2 62.64,63.41 z"
   id="path153" />
		<path
   class="st0"
   d="m 452.49,203.31 c -4.48,0 -8.95,-0.05 -13.43,0 -3.02,0.03 -5.53,-2.35 -5.56,-5.37 -0.09,-9.16 -0.04,-18.31 0,-27.42 0.01,-2.99 2.44,-5.39 5.43,-5.39 h 27.12 c 3.7,0 5.55,1.98 5.59,5.55 0.09,8.98 0.04,17.97 0,26.91 0,3.88 -2.03,5.77 -5.99,5.68 -4.35,-0.01 -8.76,0.04 -13.16,0.04 z m -9.14,-25.48 c 0,5.99 0,11.39 0,16.95 5.82,0 11.37,0 16.95,0 0,-5.83 0,-11.35 0,-16.95 -5.78,0 -11.21,0 -16.95,0 z"
   id="path155" />
		<path
   class="st0"
   d="m 351.46,283.7 c -30.39,0.08 -55.01,-24.45 -55.05,-54.8 0,-30.34 24.54,-54.97 54.92,-55.05 29.88,-0.08 54.75,24.75 54.8,54.67 0.04,30.51 -24.33,55.09 -54.67,55.18 z m 45.73,-54.8 c 0,-25.47 -20.43,-46.02 -45.73,-46.07 -25.39,-0.04 -45.98,20.38 -46.07,45.77 -0.08,25.64 20.47,46.41 45.98,46.41 25.18,-0.04 45.86,-20.77 45.82,-46.11 z"
   id="path157" />
		<path
   class="st0"
   d="m 387.91,229.28 c -0.72,0.68 -2.25,3.35 -4.2,3.73 -3.22,0.64 -4.41,-2.12 -4.75,-5.17 -1.86,-16.19 -10.55,-24.92 -26.7,-26.7 -3.09,-0.34 -5.38,-1.4 -5.13,-4.87 0.25,-3.52 2.92,-4.15 5.89,-4.07 18.19,0.34 34.76,17.04 34.89,37.08 z"
   id="path159" />
	</g>
</g>
<g
   id="Shape_1_1_"
   class="st4"
   transform="translate(-0.57927146,-110.95168)">
	<g
   id="Shape_1">
		<g
   id="g166">
			<rect
   x="6.4000001"
   y="327.70999"
   class="st0"
   width="487.20001"
   height="6.0999999"
   id="rect164" />
		</g>
	</g>
</g>
<g
   id="Shape_1_copy_1_"
   class="st4"
   transform="translate(-0.57927146,-110.95168)">
	<g
   id="Shape_1_copy">
		<g
   id="g172">
			<rect
   x="23.690001"
   y="341.95001"
   class="st0"
   width="450.57999"
   height="6.0999999"
   id="rect170" />
		</g>
	</g>
</g>
</svg>
